<svg width="16" height="16" viewBox="0 0 16 16" fill="none" xmlns="http://www.w3.org/2000/svg">
<path d="M3 10.0001C4.07043 10.0002 5.12666 9.75494 6.08744 9.283C7.04823 8.81106 7.88798 8.12506 8.54213 7.27776C9.19627 6.43045 9.64738 5.44441 9.86077 4.39545C10.0741 3.3465 10.0441 2.26258 9.773 1.22705C10.9646 1.53961 12.0526 2.16109 12.9271 3.02871C13.8016 3.89633 14.4316 4.97937 14.7536 6.16844C15.0756 7.3575 15.0781 8.61048 14.7608 9.80081C14.4435 10.9911 13.8178 12.0767 12.9467 12.9477C12.0756 13.8188 10.9901 14.4446 9.79976 14.7619C8.60943 15.0791 7.35645 15.0766 6.16739 14.7547C4.97832 14.4327 3.89528 13.8026 3.02766 12.9281C2.16003 12.0536 1.53856 10.9656 1.226 9.77405C1.80524 9.92492 2.40143 10.0009 3 10.0001Z" fill="#121212"/>
</svg>
