<svg width="16" height="16" viewBox="0 0 16 16" fill="none" xmlns="http://www.w3.org/2000/svg">
<g clip-path="url(#clip0_459_4)">
<rect width="16" height="16" fill="#0C0C0C"/>
<path d="M8 12.5C10.4853 12.5 12.5 10.4853 12.5 8C12.5 5.51472 10.4853 3.5 8 3.5C5.51472 3.5 3.5 5.51472 3.5 8C3.5 10.4853 5.51472 12.5 8 12.5Z" fill="white"/>
<path d="M8 0C8.13261 0 8.25979 0.0526784 8.35355 0.146447C8.44732 0.240215 8.5 0.367392 8.5 0.5V2H7.5V0.5C7.5 0.367392 7.55268 0.240215 7.64645 0.146447C7.74021 0.0526784 7.86739 0 8 0ZM7.5 15.5C7.5 15.6326 7.55268 15.7598 7.64645 15.8536C7.74021 15.9473 7.86739 16 8 16C8.13261 16 8.25979 15.9473 8.35355 15.8536C8.44732 15.7598 8.5 15.6326 8.5 15.5V14H7.5V15.5ZM0 8C0 7.86739 0.0526784 7.74021 0.146447 7.64645C0.240215 7.55268 0.367392 7.5 0.5 7.5H2V8.5H0.5C0.367392 8.5 0.240215 8.44732 0.146447 8.35355C0.0526784 8.25979 0 8.13261 0 8ZM15.5 8.5C15.6326 8.5 15.7598 8.44732 15.8536 8.35355C15.9473 8.25979 16 8.13261 16 8C16 7.86739 15.9473 7.74021 15.8536 7.64645C15.7598 7.55268 15.6326 7.5 15.5 7.5H14V8.5H15.5ZM1.072 4C1.13831 3.88516 1.24751 3.80137 1.3756 3.76705C1.50369 3.73273 1.64016 3.7507 1.755 3.817L3.054 4.567L2.554 5.433L1.254 4.683C1.1395 4.61636 1.05613 4.507 1.0222 4.37895C0.98826 4.25089 1.00553 4.1146 1.072 4ZM14.246 12.183C14.3029 12.2163 14.3658 12.2381 14.4311 12.247C14.4965 12.256 14.5629 12.2519 14.6267 12.235C14.6904 12.2182 14.7502 12.1889 14.8026 12.1488C14.855 12.1088 14.8989 12.0588 14.9319 12.0017C14.9649 11.9446 14.9862 11.8815 14.9947 11.8161C15.0032 11.7507 14.9987 11.6843 14.9814 11.6207C14.9641 11.557 14.9344 11.4974 14.894 11.4453C14.8536 11.3932 14.8033 11.3496 14.746 11.317L13.447 10.567L12.947 11.433L14.246 12.183ZM4 14.928C3.88516 14.8617 3.80137 14.7525 3.76705 14.6244C3.73273 14.4963 3.7507 14.3598 3.817 14.245L4.567 12.946L5.433 13.446L4.683 14.746C4.61653 14.8607 4.50724 14.9442 4.37917 14.9784C4.2511 15.0125 4.11472 14.9944 4 14.928ZM12.183 1.755C12.2163 1.69811 12.2381 1.63519 12.247 1.56986C12.256 1.50453 12.2519 1.43808 12.235 1.37433C12.2182 1.31058 12.1889 1.25079 12.1488 1.19841C12.1088 1.14603 12.0588 1.10209 12.0017 1.06912C11.9446 1.03615 11.8815 1.0148 11.8161 1.0063C11.7507 0.997799 11.6843 1.00232 11.6207 1.0196C11.557 1.03687 11.4974 1.06657 11.4453 1.10697C11.3932 1.14737 11.3496 1.19768 11.317 1.255L10.567 2.554L11.433 3.054L12.183 1.755ZM4 1.072C4.11484 1.0057 4.25131 0.987732 4.3794 1.02205C4.50749 1.05637 4.61669 1.14016 4.683 1.255L5.433 2.554L4.567 3.054L3.817 1.754C3.75133 1.63934 3.73372 1.50335 3.76801 1.37575C3.8023 1.24814 3.8857 1.1383 4 1.072ZM11.317 14.746C11.3496 14.8033 11.3932 14.8536 11.4453 14.894C11.4974 14.9344 11.557 14.9641 11.6207 14.9814C11.6843 14.9987 11.7507 15.0032 11.8161 14.9947C11.8815 14.9862 11.9446 14.9649 12.0017 14.9319C12.0588 14.8989 12.1088 14.855 12.1488 14.8026C12.1889 14.7502 12.2182 14.6904 12.235 14.6267C12.2519 14.5629 12.256 14.4965 12.247 14.4311C12.2381 14.3658 12.2163 14.3029 12.183 14.246L11.433 12.947L10.567 13.447L11.317 14.746ZM1.072 12C1.0057 11.8852 0.987732 11.7487 1.02205 11.6206C1.05637 11.4925 1.14016 11.3833 1.255 11.317L2.554 10.567L3.054 11.433L1.754 12.183C1.63934 12.2487 1.50335 12.2663 1.37575 12.232C1.24814 12.1977 1.1383 12.1143 1.072 12ZM14.746 4.683C14.8033 4.65041 14.8536 4.6068 14.894 4.55469C14.9344 4.50257 14.9641 4.44298 14.9814 4.37935C14.9987 4.31571 15.0032 4.24928 14.9947 4.18389C14.9862 4.1185 14.9649 4.05544 14.9319 3.99834C14.8989 3.94123 14.855 3.89121 14.8026 3.85116C14.7502 3.8111 14.6904 3.7818 14.6267 3.76495C14.5629 3.7481 14.4965 3.74402 14.4311 3.75295C14.3658 3.76188 14.3029 3.78365 14.246 3.817L12.947 4.567L13.447 5.433L14.746 4.683Z" fill="white"/>
</g>
<defs>
<clipPath id="clip0_459_4">
<rect width="16" height="16" fill="white"/>
</clipPath>
</defs>
</svg>
