<svg width="21" height="20" viewBox="0 0 21 20" fill="none" xmlns="http://www.w3.org/2000/svg">
<path d="M20.25 9.38565C20.25 12.071 19.1833 14.6463 17.2845 16.5451C15.3857 18.4439 12.8103 19.5107 10.125 19.5107C7.43968 19.5107 4.86435 18.4439 2.96554 16.5451C1.06674 14.6463 0 12.071 0 9.38565C0 5.3994 2.31844 1.76003 5.90625 0.113775C6.04106 0.0480496 6.18766 0.00994438 6.33742 0.0017007C6.48717 -0.00654297 6.63706 0.0152413 6.77828 0.0657722C6.91949 0.116303 7.04917 0.194561 7.1597 0.295942C7.27023 0.397324 7.35937 0.519784 7.42188 0.656118C7.48439 0.792453 7.51901 0.939911 7.5237 1.08982C7.52839 1.23973 7.50306 1.38906 7.44919 1.52904C7.39533 1.66901 7.31402 1.79681 7.21004 1.9049C7.10607 2.01299 6.98153 2.0992 6.84375 2.15846C4.05375 3.43909 2.25 6.27596 2.25 9.38565C2.25 11.4742 3.07968 13.4773 4.55653 14.9541C6.03338 16.431 8.03642 17.2607 10.125 17.2607C12.2136 17.2607 14.2166 16.431 15.6935 14.9541C17.1703 13.4773 18 11.4742 18 9.38565C18 6.27596 16.1963 3.43909 13.4062 2.15846C13.2685 2.0992 13.1439 2.01299 13.04 1.9049C12.936 1.79681 12.8547 1.66901 12.8008 1.52904C12.7469 1.38906 12.7216 1.23973 12.7263 1.08982C12.731 0.939911 12.7656 0.792453 12.8281 0.656118C12.8906 0.519784 12.9798 0.397324 13.0903 0.295942C13.2008 0.194561 13.3305 0.116303 13.4717 0.0657722C13.6129 0.0152413 13.7628 -0.00654297 13.9126 0.0017007C14.0623 0.00994438 14.2089 0.0480496 14.3438 0.113775C17.9316 1.76003 20.25 5.3994 20.25 9.38565Z" fill="white"/>
</svg>
